<svg width="751" height="341" viewBox="0 0 751 341" fill="none" xmlns="http://www.w3.org/2000/svg">
<path d="M184.439 282.294L92.4519 154.123V341H0V0H100.915L101.216 0.490136L188.118 126.235L278.699 0H390.626L371.904 27.4599L184.452 282.294H184.439ZM485.225 138.267C479.838 103.541 465.172 80.1127 465.172 80.1127C465.172 80.1127 455.994 66.4257 453.131 62.9702C443.237 51.0844 427.742 35.7064 418.488 31.7363C418.174 32.0549 400.081 56.5372 364.145 105.232C394.016 148.646 396.088 186.632 370.36 219.201C331.737 268.043 259.3 255.018 259.3 255.018C259.3 255.018 239.586 282.147 200.185 336.429C225.285 339.211 244.948 340.608 259.249 340.608C280.834 340.632 304.791 340.939 329.351 336.429C402.768 322.938 449.49 289.45 475.682 229.898C487.209 203.713 489.481 165.543 485.225 138.267ZM629.898 341L750.2 0.0490136L652.387 0L549.777 290.859L516 195.099C515.448 242.323 493.876 284.634 459.974 313.503L469.668 341H629.898Z" fill="#0085CA" fill-opacity="0.1"/>
</svg>
