<svg width="36" height="44" viewBox="0 0 36 44" fill="none" xmlns="http://www.w3.org/2000/svg">
<path d="M28 43.5L8 43.5C6.01153 43.4979 4.1051 42.707 2.69904 41.301C1.29297 39.8949 0.502118 37.9885 0.5 36L0.5 8C0.502118 6.01153 1.29297 4.1051 2.69904 2.69904C4.1051 1.29297 6.01153 0.502118 8 0.5L21.2 0.5C22.2982 0.500211 23.3828 0.742228 24.3769 1.20886C25.3711 1.6755 26.2502 2.35531 26.952 3.2L33.762 11.372C34.8839 12.7201 35.4988 14.4182 35.5 16.172L35.5 36C35.4979 37.9885 34.707 39.8949 33.301 41.301C31.8949 42.707 29.9885 43.4979 28 43.5ZM8 3.5C6.80685 3.50106 5.66287 3.9755 4.81919 4.81919C3.9755 5.66287 3.50106 6.80685 3.5 8L3.5 36C3.50106 37.1931 3.9755 38.3371 4.81919 39.1808C5.66287 40.0245 6.80685 40.4989 8 40.5L28 40.5C29.1931 40.4989 30.3371 40.0245 31.1808 39.1808C32.0245 38.3371 32.4989 37.1931 32.5 36L32.5 16.172C32.4994 15.1198 32.1308 14.101 31.458 13.292L24.646 5.12C24.2259 4.61344 23.6993 4.20566 23.1037 3.92567C22.5081 3.64567 21.8581 3.50034 21.2 3.5L8 3.5Z" fill="#0085CA"/>
<path d="M26 23.5L10 23.5C9.60218 23.5 9.22064 23.342 8.93934 23.0607C8.65804 22.7794 8.5 22.3978 8.5 22C8.5 21.6022 8.65804 21.2206 8.93934 20.9393C9.22064 20.658 9.60218 20.5 10 20.5L26 20.5C26.3978 20.5 26.7794 20.658 27.0607 20.9393C27.342 21.2206 27.5 21.6022 27.5 22C27.5 22.3978 27.342 22.7794 27.0607 23.0607C26.7794 23.342 26.3978 23.5 26 23.5Z" fill="#0085CA"/>
<path d="M22 31.5L10 31.5C9.60218 31.5 9.22064 31.342 8.93934 31.0607C8.65804 30.7794 8.5 30.3978 8.5 30C8.5 29.6022 8.65804 29.2206 8.93934 28.9393C9.22064 28.658 9.60218 28.5 10 28.5L22 28.5C22.3978 28.5 22.7794 28.658 23.0607 28.9393C23.342 29.2206 23.5 29.6022 23.5 30C23.5 30.3978 23.342 30.7794 23.0607 31.0607C22.7794 31.342 22.3978 31.5 22 31.5Z" fill="#0085CA"/>
<path d="M33.6 15.5L28 15.5C26.5418 15.4984 25.1438 14.9184 24.1127 13.8873C23.0816 12.8562 22.5016 11.4582 22.5 9.99995V2.69995C22.5 2.30213 22.658 1.9206 22.9393 1.63929C23.2206 1.35799 23.6022 1.19995 24 1.19995C24.3978 1.19995 24.7794 1.35799 25.0607 1.63929C25.342 1.9206 25.5 2.30213 25.5 2.69995V9.99995C25.5011 10.6627 25.7648 11.2979 26.2334 11.7666C26.702 12.2352 27.3373 12.4989 28 12.5L33.6 12.5C33.9978 12.5 34.3794 12.658 34.6607 12.9393C34.942 13.2206 35.1 13.6021 35.1 14C35.1 14.3978 34.942 14.7793 34.6607 15.0606C34.3794 15.3419 33.9978 15.5 33.6 15.5Z" fill="#0085CA"/>
</svg>
